<svg width="93" height="32" viewBox="0 0 93 32" fill="none" xmlns="http://www.w3.org/2000/svg"><g clip-path="url(#clip0_3_788)"><path d="M88.591.082H3.967A3.962 3.962 0 000 4.041v23.418a3.962 3.962 0 003.967 3.958H88.59a3.962 3.962 0 003.967-3.958V4.041A3.962 3.962 0 0088.591.082z" fill="#000"/><path fill-rule="evenodd" clip-rule="evenodd" d="M35.846 22.993h-1.575l-.863-2.708h-3l-.822 2.708h-1.534l2.972-9.218h1.836l2.986 9.218zm4.89-6.784c.785 0 1.441.31 1.966.93.525.62.788 1.437.788 2.448 0 1.13-.306 2.024-.918 2.68-.548.584-1.229.876-2.041.876-.877 0-1.507-.315-1.89-.944h-.029v3.502h-1.479v-7.167c0-.71-.018-1.44-.055-2.188h1.301l.083 1.053h.028c.493-.793 1.241-1.19 2.246-1.19zm7.658 0c.785 0 1.44.31 1.966.93.524.62.787 1.437.787 2.448 0 1.13-.306 2.024-.919 2.68-.547.584-1.228.876-2.04.876-.877 0-1.507-.315-1.89-.944h-.028v3.502h-1.479v-7.167c0-.71-.018-1.44-.055-2.188h1.301l.083 1.053h.028c.492-.793 1.24-1.19 2.246-1.19zm20.354.001c.977 0 1.763.323 2.356.971.568.628.85 1.44.85 2.433 0 1.022-.292 1.861-.876 2.517-.613.675-1.426 1.012-2.44 1.012-.976 0-1.754-.323-2.334-.97-.58-.647-.87-1.464-.87-2.448 0-1.03.298-1.874.897-2.53.597-.657 1.403-.985 2.417-.985zm-11.491-2.57c.84 0 1.538.146 2.095.437l-.37 1.204c-.52-.282-1.108-.424-1.767-.424-.52 0-.927.128-1.218.383-.246.228-.37.506-.37.835 0 .364.141.666.424.902.246.22.694.456 1.343.712.795.32 1.378.693 1.754 1.12.373.427.56.961.56 1.599 0 .784-.273 1.422-.82 1.914-.601.538-1.439.807-2.515.807-.993 0-1.79-.191-2.393-.574l.343-1.231a4.06 4.06 0 002.138.589c.557 0 .99-.126 1.303-.377.31-.25.464-.587.464-1.007 0-.374-.127-.69-.383-.945-.255-.256-.68-.493-1.274-.713-1.617-.602-2.424-1.483-2.424-2.643 0-.758.283-1.379.85-1.863.564-.484 1.318-.725 2.26-.725zm5.711 1.05v1.654h1.63v1.11h-1.63v3.227c0 .821.287 1.231.863 1.231.265 0 .484-.023.657-.069l.041 1.122c-.291.109-.675.163-1.15.163-.584 0-1.04-.178-1.37-.533-.328-.356-.494-.953-.494-1.792v-3.35h-.97v-1.109h.97v-1.217l1.453-.437zm17.644 1.507c.96 0 1.686.355 2.179 1.066.39.564.587 1.263.587 2.092 0 .264-.018.487-.054.67h-4.438c.017.656.232 1.158.644 1.505.374.31.858.464 1.451.464.657 0 1.257-.104 1.796-.314l.232 1.025c-.63.275-1.374.41-2.232.41-1.033 0-1.843-.302-2.433-.909-.588-.606-.883-1.42-.883-2.44 0-1.003.274-1.837.823-2.503.574-.71 1.35-1.066 2.328-1.066zm-4.22.012c.137 0 .26.01.37.027v1.409a2.572 2.572 0 00-.466-.041c-.52 0-.922.196-1.206.588-.246.347-.37.785-.37 1.313v3.488h-1.478l.014-4.554c0-.766-.019-1.463-.055-2.093h1.288l.054 1.272h.041c.156-.437.403-.789.74-1.053a1.79 1.79 0 011.069-.356zm-7.697 1.08c-.594 0-1.046.266-1.356.796-.266.44-.397.973-.397 1.605 0 .613.131 1.139.397 1.576.32.531.767.796 1.343.796.565 0 1.008-.27 1.328-.81.273-.446.41-.977.41-1.59 0-.613-.131-1.138-.397-1.577-.31-.53-.753-.795-1.328-.795zm-28.438.096a1.54 1.54 0 00-.993.362 1.68 1.68 0 00-.582.951 1.93 1.93 0 00-.069.45v1.109c0 .483.149.891.446 1.224.297.333.682.5 1.157.5.557 0 .99-.215 1.3-.643.311-.429.467-.994.467-1.697 0-.646-.146-1.18-.439-1.6a1.515 1.515 0 00-1.287-.656zm7.657 0c-.366 0-.697.122-.994.362a1.68 1.68 0 00-.581.951 1.969 1.969 0 00-.069.45v1.109c0 .483.149.891.444 1.224.297.333.683.5 1.159.5.557 0 .99-.215 1.3-.643.312-.429.467-.994.467-1.697 0-.646-.146-1.18-.44-1.6a1.513 1.513 0 00-1.286-.656zM31.9 15.005c.229.912.384 1.491.466 1.737l.78 2.407H30.67l.766-2.407c.202-.765.348-1.344.439-1.737h.027zm48.6 2.216c-.483 0-.877.2-1.177.602a2.201 2.201 0 00-.438 1.148h3.081v-.108a1.962 1.962 0 00-.287-1.027c-.256-.41-.65-.615-1.179-.615zM35.148 7.144c.48 0 .866.158 1.158.476.278.31.417.708.417 1.196 0 .502-.143.913-.43 1.236-.302.332-.7.498-1.199.498-.48 0-.862-.159-1.147-.478-.285-.318-.427-.719-.427-1.202 0-.506.147-.92.44-1.243.295-.322.69-.483 1.188-.483zm15.505 0c.48 0 .866.158 1.159.476.277.31.417.708.417 1.196 0 .502-.144.913-.431 1.236-.301.332-.7.498-1.198.498-.481 0-.863-.159-1.148-.478-.284-.318-.427-.719-.427-1.202 0-.506.147-.92.441-1.243.294-.322.69-.483 1.187-.483zm3.764 0c.855 0 1.283.45 1.283 1.35v1.203c0 .326.016.586.047.779h-.652l-.054-.377h-.02c-.224.3-.543.45-.956.45-.309 0-.558-.098-.746-.295a.927.927 0 01-.257-.665c0-.4.167-.703.502-.914.334-.21.805-.314 1.41-.309v-.06c0-.43-.226-.645-.679-.645-.322 0-.607.08-.852.241l-.148-.476c.304-.188.68-.282 1.122-.282zm5.436-1.432v3.884c0 .318.008.61.026.88h-.645L59.2 9.95h-.02c-.206.4-.557.599-1.05.599-.395 0-.723-.155-.983-.464-.26-.309-.39-.71-.39-1.202 0-.529.14-.957.424-1.284.274-.305.61-.457 1.01-.457.438 0 .746.148.92.443h.014V5.712h.728zm4.67 1.432c.48 0 .866.158 1.157.476.278.31.417.708.417 1.196 0 .502-.143.913-.43 1.236-.302.332-.7.498-1.199.498-.48 0-.861-.159-1.147-.478-.285-.318-.427-.719-.427-1.202 0-.506.146-.92.44-1.243.295-.322.69-.483 1.189-.483zm9.576-.747v.813h.8v.544h-.8V9.34c0 .403.142.605.424.605.13 0 .239-.011.324-.034l.019.55a1.635 1.635 0 01-.565.082c-.287 0-.51-.088-.672-.262-.163-.175-.243-.468-.243-.88V7.753h-.478V7.21h.478v-.598l.713-.215zm7.26.74c.47 0 .828.175 1.069.524.195.277.291.62.291 1.027 0 .13-.01.24-.027.33h-2.18c.01.322.114.568.316.739.184.152.422.228.713.228.323 0 .617-.051.882-.154l.114.504c-.31.134-.675.201-1.098.201-.506 0-.905-.149-1.194-.446-.29-.298-.433-.698-.433-1.2 0-.492.134-.902.404-1.229.281-.349.662-.523 1.143-.523zM30.182 5.914c.795 0 1.394.172 1.797.517.453.39.68.948.68 1.674 0 .815-.245 1.429-.735 1.84-.453.381-1.096.572-1.93.572a8.97 8.97 0 01-1.064-.054V6.007a7.86 7.86 0 011.252-.094zm14.623 1.229c.305 0 .56.098.761.295.251.242.377.603.377 1.082v1.957h-.727v-1.87c0-.577-.22-.865-.66-.865a.657.657 0 00-.524.237.842.842 0 00-.202.56v1.937h-.727V8.143c0-.286-.01-.597-.027-.934h.64l.033.51h.02c.085-.158.211-.29.377-.394a1.23 1.23 0 01.66-.183zm-6.623.068l.37 1.553c.09.367.163.716.222 1.048h.013c.055-.273.144-.621.27-1.042l.464-1.558h.593l.445 1.525c.107.372.195.73.262 1.075h.02c.05-.336.123-.694.222-1.075l.397-1.525h.713l-1.023 3.264h-.666l-.424-1.417a10.61 10.61 0 01-.263-1.055h-.013c-.063.358-.15.71-.263 1.055l-.45 1.418h-.673l-.963-3.266h.747zm9.766-1.498v4.764h-.726V5.712h.726zm20.922 1.43c.304 0 .558.098.76.295.252.242.377.603.377 1.082v1.957h-.727v-1.87c0-.577-.219-.865-.66-.865a.654.654 0 00-.524.237.839.839 0 00-.202.56v1.937h-.728V8.143c0-.286-.008-.597-.025-.934h.638l.034.51h.02a1.06 1.06 0 01.377-.394 1.23 1.23 0 01.66-.183zm7.765-1.43V7.68h.014a1.1 1.1 0 01.982-.537c.301 0 .55.098.748.296.246.246.37.611.37 1.095v1.941h-.728V8.62c0-.585-.22-.878-.658-.878-.337 0-.568.17-.694.509a.911.911 0 00-.034.261v1.964h-.726V5.712h.726zM64.496 7.674c-.291 0-.513.13-.667.39-.13.216-.195.478-.195.789 0 .3.066.56.195.775.158.26.377.39.66.39.277 0 .496-.132.653-.397.134-.22.202-.48.202-.782 0-.3-.065-.56-.195-.775-.153-.26-.37-.39-.653-.39zM53.79 9.508c0 .17.045.298.14.383a.509.509 0 00.354.127c.16 0 .309-.05.445-.15a.618.618 0 00.264-.515V8.85c-.802-.014-1.203.206-1.203.658zm-3.163-1.834a.728.728 0 00-.666.39c-.13.216-.195.478-.195.789 0 .3.065.56.195.775.157.26.376.39.66.39.277 0 .494-.132.65-.397.136-.22.203-.48.203-.782 0-.3-.065-.56-.195-.775-.152-.26-.37-.39-.652-.39zm-15.505 0a.73.73 0 00-.667.39c-.13.216-.194.478-.194.789 0 .3.065.56.194.775.158.26.377.39.66.39.278 0 .496-.132.652-.397.135-.22.202-.48.202-.782 0-.3-.065-.56-.195-.775-.152-.26-.37-.39-.652-.39zm23.234.034a.746.746 0 00-.64.322c-.154.216-.233.49-.233.827 0 .323.075.584.224.786.157.215.37.322.635.322a.7.7 0 00.575-.269.894.894 0 00.208-.598v-.544a.826.826 0 00-.283-.668.715.715 0 00-.486-.178zM30.243 6.484a3.08 3.08 0 00-.586.047v3.387c.09.014.253.02.491.02.557 0 .986-.154 1.289-.463.302-.31.455-.76.455-1.351 0-.529-.14-.934-.42-1.216-.28-.282-.69-.424-1.23-.424zM81.306 7.64a.69.69 0 00-.578.296 1.09 1.09 0 00-.216.565h1.514a.976.976 0 00-.141-.558c-.127-.201-.319-.303-.579-.303zm-66.725 3.183c.701 0 2.037-.967 3.413-.822.576.017 2.214.227 3.272 1.765-.086.05-1.953 1.146-1.932 3.396.023 2.697 2.364 3.588 2.393 3.598-.014.063-.367 1.287-1.245 2.53-.733 1.094-1.502 2.163-2.722 2.183-1.185.027-1.584-.696-2.944-.696-1.372 0-1.796.676-2.933.723-1.163.043-2.05-1.168-2.81-2.252-1.52-2.214-2.702-6.24-1.116-8.978.768-1.343 2.169-2.208 3.666-2.231 1.164-.024 2.243.784 2.958.784zM18.01 5.69c.116 1.053-.303 2.091-.914 2.855-.639.75-1.66 1.325-2.654 1.251-.13-1.013.374-2.091.938-2.749.637-.746 1.744-1.318 2.63-1.357z" fill="#fff"/></g><defs><clipPath id="clip0_3_788"><path fill="#fff" d="M0 0h92.558v31.665H0z"/></clipPath></defs></svg>