<svg width="94" height="32" viewBox="0 0 94 32" fill="none" xmlns="http://www.w3.org/2000/svg"><path d="M89.368.08H4.002A4 4 0 000 4.08v23.665a4 4 0 004.002 4h85.366a4 4 0 004.002-4V4.08a4 4 0 00-4.002-4z" fill="#000"/><path fill-rule="evenodd" clip-rule="evenodd" d="M7.561 12.998c-.263.083-.433.352-.433.758l.002 12.78c0 .402.165.667.42.755l7.096-7.152-7.085-7.14z" fill="url(#paint0_linear_3_797)"/><path fill-rule="evenodd" clip-rule="evenodd" d="M7.55 27.291c.185.063.415.034.666-.105l8.659-4.8-2.23-2.247-7.094 7.152z" fill="url(#paint1_linear_3_797)"/><path fill-rule="evenodd" clip-rule="evenodd" d="M16.876 22.386l2.952-1.636c.599-.333.599-.875 0-1.207L16.865 17.9l-2.22 2.237 2.231 2.248z" fill="url(#paint2_linear_3_797)"/><path fill-rule="evenodd" clip-rule="evenodd" d="M16.864 17.9l-8.648-4.792c-.245-.136-.471-.167-.654-.11l7.083 7.14 2.22-2.238z" fill="url(#paint3_linear_3_797)"/><path fill-rule="evenodd" clip-rule="evenodd" d="M54.051 17.32l-.876.499h-.85c.314.26.97.812.97 1.86 0 1.02-.572 1.502-1.147 1.958-.177.179-.384.373-.384.674 0 .305.207.47.356.594l.494.385c.6.51 1.148.98 1.148 1.931 0 1.297-1.245 2.605-3.598 2.605-1.982 0-2.94-.952-2.94-1.972 0-.496.245-1.2 1.054-1.681.848-.523 1.997-.592 2.612-.633-.192-.25-.412-.512-.412-.94 0-.233.07-.373.137-.537-.15.015-.3.03-.437.03-1.45 0-2.27-1.092-2.27-2.166 0-.634.287-1.338.876-1.848.78-.647 1.71-.759 2.448-.759h2.819zm-2.947 6.605h-.063c-.124 0-.863.026-1.435.22-.303.112-1.178.441-1.178 1.42 0 .978.945 1.683 2.406 1.683 1.314 0 2.01-.635 2.01-1.49 0-.702-.45-1.073-1.488-1.819a1.785 1.785 0 00-.252-.014zm30.22-6.65l2.338 5.652 2.316-5.652h.782l-3.324 7.89c-.345.814-.887 1.205-1.633 1.205-.224 0-.519-.04-.691-.094l.119-.643c.147.066.4.107.56.107.423 0 .718-.174.983-.79l.504-1.153-2.725-6.522h.772zm-12.364-.161c1.715 0 2.87 1.311 2.87 3.388 0 2.063-1.155 3.402-2.87 3.402-.903 0-1.712-.47-2.231-1.205v3.511h-.692v-8.935h.692v1.018a2.744 2.744 0 012.23-1.18zm-40.254-2.715a7.43 7.43 0 011.964.27c.96.272 1.41.607 1.691.804l-1.065 1.02-.45.1.32-.514c-.433-.427-1.23-1.215-2.743-1.215-2.023 0-3.549 1.55-3.549 3.813 0 2.43 1.742 4.717 4.537 4.717.821 0 1.244-.166 1.628-.322V20.99l-1.936.105 1.026-.556h2.717l-.332.322c-.09.077-.102.103-.127.206a9.36 9.36 0 00-.026.624v1.576l-1.834.423c-.743.118-1.41.222-2.116.222-3.537 0-4.885-2.624-4.885-4.678 0-2.508 1.91-4.834 5.18-4.834zm48.609 2.712c.754 0 1.364.183 1.825.548.46.362.69.884.69 1.567v3.191a4.262 4.262 0 00.177 1.307h-.797a12.048 12.048 0 01-.107-.587 3.966 3.966 0 01-.033-.504 2.747 2.747 0 01-1.003.873c-.43.231-.837.345-1.397.345-.674 0-1.197-.167-1.57-.506-.373-.339-.56-.798-.56-1.378 0-.58.271-1.05.812-1.41.54-.362 1.24-.542 2.104-.542h1.614v-.803c0-.463-.157-.827-.47-1.091-.313-.265-.753-.398-1.324-.398-.521 0-.944.122-1.267.36-.32.242-.48.543-.48.905h-.708l-.015-.034c-.025-.489.196-.917.668-1.288.47-.37 1.084-.555 1.84-.555zm-17.043.031c.492 0 .998.125 1.409.386.683.456.86 1.048.958 1.365l-3.216 1.31-1.053.082c.341 1.753 1.518 2.772 2.817 2.772.65 0 1.132-.214 1.574-.434 0 0 .088-.047.025.017l-.654.622c-.151.084-.301.181-.451.25-.455.208-.917.26-1.327.26-.437 0-1.122-.028-1.821-.537-.97-.69-1.395-1.875-1.395-2.907 0-2.137 1.726-3.186 3.134-3.186zm-23.5 0c2.01 0 3.268 1.587 3.268 3.253 0 1.627-1.243 3.349-3.474 3.349-2.174 0-3.336-1.706-3.336-3.252 0-1.805 1.463-3.35 3.542-3.35zm7.278 0c2.011 0 3.27 1.587 3.27 3.253 0 1.627-1.244 3.349-3.475 3.349-2.174 0-3.337-1.706-3.337-3.252 0-1.805 1.462-3.35 3.542-3.35zm29.417-2.334v8.935h-.691v-8.935h.691zm-16.795-.974c-.424.247-.551.398-.605.88l-.004 7.82c0 .535.095.618.545.66.234.028.467.04.698.068l-.505.304h-2.41c.315-.414.37-.455.37-.73v-.308l-.006-8.197h-1.064l1.025-.497h1.956zM36.417 17.57c-.453 0-.902.178-1.23.468-.536.482-.63 1.089-.63 1.683 0 1.363.67 3.61 2.325 3.61.534 0 1.08-.262 1.395-.702.328-.442.41-.992.41-1.53 0-1.213-.575-3.529-2.27-3.529zm7.28 0a1.9 1.9 0 00-1.234.468c-.534.482-.629 1.089-.629 1.683 0 1.363.668 3.61 2.326 3.61.535 0 1.08-.262 1.396-.702.33-.442.41-.992.41-1.53 0-1.213-.573-3.529-2.27-3.529zm25.146.173c-.891 0-1.744.706-2.114 1.322v2.86c.37.617 1.223 1.349 2.114 1.349 1.435 0 2.245-1.204 2.245-2.772 0-1.565-.81-2.759-2.245-2.759zM79.07 20.57h-1.621c-.62 0-1.132.138-1.536.416-.404.278-.609.614-.609 1.006 0 .368.13.663.388.887.259.226.612.338 1.063.338.587 0 1.01-.133 1.441-.395.43-.26.72-.6.874-1.01V20.57zm-28.7-2.793c-.355 0-.74.18-.957.457-.232.287-.301.66-.301 1.018 0 .923.534 2.455 1.709 2.455.343 0 .712-.168.928-.386.316-.319.344-.758.344-1.008 0-.991-.587-2.536-1.724-2.536zm9.518-.179c-.547 0-1.573.429-1.573 1.918 0 .233.028.48.042.728l2.49-1.089c.26-.096.396-.178.396-.37 0-.55-.618-1.187-1.355-1.187zM25.79 5.16c.859 0 1.42.41 1.771.912l-.628.364a1.423 1.423 0 00-1.144-.588c-.872 0-1.52.66-1.52 1.593 0 .918.648 1.592 1.52 1.592.45 0 .846-.205 1.045-.396v-.681h-1.322v-.681H27.6v1.646a2.382 2.382 0 01-1.812.806c-1.283 0-2.314-.905-2.314-2.286 0-1.388 1.031-2.28 2.314-2.28zm22.514 0c1.316 0 2.255.965 2.255 2.28s-.94 2.28-2.255 2.28c-1.323 0-2.254-.965-2.254-2.28s.931-2.28 2.254-2.28zm-16.725.073v.681H29.33V7.05h2.202v.681H29.33v1.23h2.249v.68h-3.022V5.233h3.022zm4.249 0v.681h-1.336v3.727h-.773V5.914h-1.335v-.68h3.444zm3.461 0v4.408h-.773V5.233h.773zm4.264 0v.681h-1.335v3.727h-.774V5.914h-1.335v-.68h3.444zm8.703 0l2.254 3.053V5.233h.773v4.408h-.747l-2.3-3.152V9.64h-.774V5.233h.793zm-3.952.615c-.893 0-1.46.68-1.46 1.593 0 .904.567 1.592 1.46 1.592.886 0 1.461-.688 1.461-1.592 0-.912-.575-1.593-1.46-1.593z" fill="#fff"/><defs><linearGradient id="paint0_linear_3_797" x1="10.887" y1="12.998" x2="10.887" y2="27.291" gradientUnits="userSpaceOnUse"><stop stop-color="#1E79AF"/><stop offset="1" stop-color="#63FFD3"/></linearGradient><linearGradient id="paint1_linear_3_797" x1="15.45" y1="22.213" x2="9.209" y2="27.186" gradientUnits="userSpaceOnUse"><stop stop-color="#DC4057"/><stop offset="1" stop-color="#9E36BB"/></linearGradient><linearGradient id="paint2_linear_3_797" x1="17.461" y1="17.901" x2="17.461" y2="22.288" gradientUnits="userSpaceOnUse"><stop stop-color="#FF9676"/><stop offset="1" stop-color="#FFD074"/></linearGradient><linearGradient id="paint3_linear_3_797" x1="9.184" y1="14.426" x2="15.41" y2="20.24" gradientUnits="userSpaceOnUse"><stop stop-color="#51C6AD"/><stop offset="1" stop-color="#D5FFA1"/></linearGradient></defs></svg>