<svg width="256" height="256" viewBox="0 0 256 256" fill="none" xmlns="http://www.w3.org/2000/svg">
<g clip-path="url(#clip0_3734_2374)">
<rect width="256" height="256" fill="white"/>
<path d="M0 0H256V256H0V0Z" fill="url(#paint0_linear_3734_2374)"/>
<path d="M164.396 126.027C181.464 122.822 188.991 115.925 188.991 100.426V99.4196C188.991 76.7326 171.938 68.8401 136.828 68V90.1892C148.116 90.3655 154.854 91.2367 158.363 94.1925C160.372 96.0541 161.387 98.7402 161.387 102.614V103.293C161.387 110.532 156.364 113.561 147.822 114.743C143.304 115.246 138.621 115.422 132.763 115.422H110.383V137.316H129.754C130.532 137.316 131.31 137.316 132.062 137.331C148.131 137.389 156.704 138.332 160.372 142.03C162.381 143.876 163.381 146.738 163.381 150.612V151.291C163.381 158.354 160.372 161.896 149.996 163.244C144.813 164.084 137.621 164.421 127.745 164.421H87.6783V137.166H64V188H131.269C157.698 188 175.607 183.955 184.973 173.848C189.651 168.974 192 161.896 192 153.137V152.473C192 135.454 183.633 128.718 164.396 126.027Z" fill="white"/>
<path d="M118 68V90.213H116.053C115.136 90.213 114.194 90.213 113.235 90.2286C108.321 90.2597 103.142 90.3789 99.5011 90.8923C95.3839 91.6908 93.0534 93.0389 91.4169 95.564C90.6349 96.7462 89.9979 98.2084 89.4075 99.9921C88.1076 104.13 87.8021 110.482 87.8435 115.49C87.8435 116.377 87.859 117.217 87.8901 118H64V68H118Z" fill="#D8FD56"/>
</g>
<defs>
<linearGradient id="paint0_linear_3734_2374" x1="128" y1="0" x2="128" y2="256" gradientUnits="userSpaceOnUse">
<stop stop-color="#191634"/>
<stop offset="1" stop-color="#45248D"/>
</linearGradient>
<clipPath id="clip0_3734_2374">
<rect width="256" height="256" fill="white"/>
</clipPath>
</defs>
</svg>
